<?xml version="1.0" encoding="UTF-8"?>
<svg width="393px" height="393px" viewBox="0 0 393 393" version="1.1" xmlns="http://www.w3.org/2000/svg" xmlns:xlink="http://www.w3.org/1999/xlink">
    <!-- Generator: Sketch 51 (57462) - http://www.bohemiancoding.com/sketch -->
    <title>icons / active / desktop / studying</title>
    <desc>Created with Sketch.</desc>
    <defs></defs>
    <g id="icons-/-active-/-desktop-/-studying" stroke="none" stroke-width="1" fill="none" fill-rule="evenodd">
        <g id="icons-/-active-/studying" transform="translate(11.000000, 0.000000)" fill-rule="nonzero">
            <path d="M319.404,226.586 L323.089,175.257 C285.4,155.54 237.174,159.936 197.158,186.764 L197.158,339.136 C233.489,326.982 275.897,334.675 309.901,359.306 C311.323,339.589 314.297,298.021 314.297,298.021 C303.113,292.074 295.42,280.243 295.42,266.667 L295.42,260.202 C295.421,244.558 305.441,231.37 319.404,226.586 Z" id="Shape"></path>
            <path d="M49.376,175.257 L53.061,226.586 C66.96,231.37 77.045,244.622 77.045,260.138 L77.045,266.603 C77.045,280.179 69.417,292.009 58.168,297.957 L58.168,298.345 C59.655,318.644 61.077,339.008 62.564,359.307 C96.568,334.677 139.041,327.113 175.307,339.137 L175.307,186.828 C135.227,159.935 87,155.539 49.376,175.257 Z" id="Shape" fill="#E5EDFF"></path>
            <path d="M296.972,233.503 L300.14,189.22 C287.986,183.66 248.746,178.295 218.879,199.046 L218.879,312.436 C239.437,308.816 270.596,314.052 290.507,323.62 C291.153,315.281 293.158,287.612 293.158,287.612" id="Shape" fill="#5E7FEB"></path>
            <path d="M186.233,136.21 C223.793,136.21 254.37,105.632 254.37,68.073 C254.37,30.514 223.792,0 186.233,0 C148.674,0 118.096,30.578 118.096,68.137 C118.096,105.696 148.673,136.21 186.233,136.21 Z M186.233,21.786 C211.833,21.786 232.585,42.602 232.585,68.138 C232.585,93.674 211.769,114.49 186.233,114.49 C160.697,114.49 139.881,93.674 139.881,68.138 C139.881,42.602 160.633,21.786 186.233,21.786 Z" id="Shape" fill="#1A237E"></path>
            <path d="M186.233,21.786 C160.633,21.786 139.881,42.602 139.881,68.138 C139.881,93.674 160.697,114.49 186.233,114.49 C211.769,114.49 232.585,93.674 232.585,68.138 C232.585,42.602 211.833,21.786 186.233,21.786 Z" id="Shape" fill="#5E7FEB"></path>
            <g id="Group" transform="translate(22.000000, 246.000000)">
                <path d="M327.724,34.307 L327.724,0.303 L308.977,0.303 C301.413,0.303 295.207,6.509 295.207,14.073 L295.207,20.538 C295.207,28.102 301.413,34.308 308.977,34.308 L327.724,34.308 L327.724,34.307 Z" id="Shape"></path>
                <path d="M33.194,20.602 L33.194,14.137 C33.194,6.573 26.988,0.367 19.424,0.367 L0.742,0.367 L0.742,34.371 L19.489,34.371 C27.053,34.307 33.194,28.166 33.194,20.602 Z" id="Shape"></path>
            </g>
            <path d="M349.724,224.517 L341.385,224.517 L345.328,169.891 C345.651,165.818 343.647,161.939 340.092,159.741 C294.71,132.202 235.171,135.628 186.169,167.886 C137.232,135.692 77.628,132.266 32.246,159.741 C28.755,161.81 26.751,165.753 27.01,169.891 L30.953,224.517 L22.743,224.517 C10.719,224.517 0.957,234.343 0.957,246.303 L0.957,280.307 C0.957,292.331 10.783,302.093 22.743,302.093 L36.577,302.093 C38.516,328.857 40.456,355.491 42.395,382.255 C42.912,390.4 53.385,396.542 60.949,389.237 C94.888,355.492 144.278,345.601 181.127,365.253 C185.135,366.869 188.497,366.675 191.406,365.253 C228.254,345.536 277.709,355.427 311.584,389.237 C319.083,396.995 330.202,389.56 330.138,382.255 C332.013,355.491 334.017,328.857 335.956,302.093 L349.79,302.093 C361.814,302.093 371.576,292.267 371.576,280.307 L371.576,246.303 C371.509,234.343 361.813,224.517 349.724,224.517 Z M55.194,266.602 C55.194,274.166 48.988,280.372 41.424,280.372 L22.742,280.372 L22.742,246.368 L41.489,246.368 C49.053,246.368 55.259,252.574 55.259,260.138 L55.259,266.603 L55.194,266.602 Z M175.307,339.135 C138.976,326.981 96.568,334.674 62.564,359.305 C61.077,339.006 59.655,318.642 58.168,298.343 L58.168,297.955 C69.352,292.008 77.045,280.177 77.045,266.601 L77.045,260.136 C77.045,244.621 67.025,231.368 53.061,226.585 L49.376,175.256 C87.065,155.539 135.291,159.935 175.307,186.828 L175.307,339.135 Z M309.901,359.305 C275.897,334.675 233.489,326.982 197.158,339.135 L197.158,274.23 L218.621,274.23 C224.633,274.23 229.546,269.382 229.546,263.305 C229.546,257.228 224.698,252.38 218.621,252.38 L197.158,252.38 L197.158,232.663 L244.996,232.663 C251.008,232.663 255.921,227.815 255.921,221.738 C255.921,215.726 251.072,210.813 244.996,210.813 L197.222,210.813 L197.222,186.7 C237.303,159.807 285.529,155.411 323.153,175.193 L319.468,226.522 C305.569,231.306 295.484,244.558 295.484,260.073 L295.484,266.538 C295.484,280.114 303.112,291.879 314.361,297.892 C314.362,297.956 311.324,339.523 309.901,359.305 Z M330.976,280.307 C323.412,280.307 317.206,274.101 317.206,266.537 L317.206,260.072 C317.206,252.508 323.412,246.302 330.976,246.302 L349.723,246.302 L349.723,280.306 L330.976,280.306 L330.976,280.307 Z" id="Shape" fill="#1A237E"></path>
        </g>
    </g>
</svg>